<?xml version="1.0" encoding="iso-8859-1"?>
<!-- Uploaded to: SVG Repo, www.svgrepo.com, Generator: SVG Repo Mixer Tools -->
<svg height="800px" width="800px" version="1.1" id="Layer_1" xmlns="http://www.w3.org/2000/svg" xmlns:xlink="http://www.w3.org/1999/xlink" 
	 viewBox="0 0 512 512" xml:space="preserve">
<path style="fill:#A5A5A5;" d="M512,77.913v33.391H0V77.913c0-24.588,19.933-44.522,44.522-44.522h422.957
	C492.066,33.391,512,53.325,512,77.913z"/>
<path style="fill:#777777;" d="M397.913,66.226v1.113c0,4.61-3.738,8.348-8.348,8.348c-4.61,0-8.348-3.738-8.348-8.348v-1.113
	c0-4.61,3.738-8.348,8.348-8.348C394.175,57.878,397.913,61.616,397.913,66.226z M422.957,57.878c-4.61,0-8.348,3.738-8.348,8.348
	v1.113c0,4.61,3.738,8.348,8.348,8.348c4.61,0,8.348-3.738,8.348-8.348v-1.113C431.304,61.616,427.567,57.878,422.957,57.878z
	 M456.348,57.878c-4.61,0-8.348,3.738-8.348,8.348v1.113c0,4.61,3.738,8.348,8.348,8.348s8.348-3.738,8.348-8.348v-1.113
	C464.696,61.616,460.958,57.878,456.348,57.878z"/>
<path style="fill:#FFE6AE;" d="M512,100.174v311.652c0,24.588-19.933,44.522-44.522,44.522H44.522
	C19.933,456.348,0,436.414,0,411.826V100.174h66.783V22.261C66.783,9.966,76.749,0,89.043,0h89.043
	c12.295,0,22.261,9.966,22.261,22.261v77.913H512z"/>
<path style="fill:#FFD880;" d="M456.348,261.565V384c0,12.295-9.966,22.261-22.261,22.261H77.913
	c-12.295,0-22.261-9.966-22.261-22.261V261.565c0-12.295,9.966-22.261,22.261-22.261h356.174
	C446.382,239.304,456.348,249.271,456.348,261.565z M77.913,194.783h100.174c12.295,0,22.261-9.966,22.261-22.261
	c0-12.295-9.966-22.261-22.261-22.261H77.913c-12.295,0-22.261,9.966-22.261,22.261C55.652,184.816,65.618,194.783,77.913,194.783z
	 M256,194.783h178.087c12.295,0,22.261-9.966,22.261-22.261c0-12.295-9.966-22.261-22.261-22.261H256
	c-12.295,0-22.261,9.966-22.261,22.261C233.739,184.816,243.705,194.783,256,194.783z"/>
<path style="fill:#FCC159;" d="M200.348,22.261v77.913H66.783V22.261C66.783,9.966,76.749,0,89.043,0h89.043
	C190.382,0,200.348,9.966,200.348,22.261z"/>
<path style="fill:#FFA522;" d="M178.087,38.957v22.261c0,6.147-4.983,11.13-11.13,11.13h-66.783c-6.147,0-11.13-4.983-11.13-11.13
	V38.957c0-6.147,4.983-11.13,11.13-11.13h66.783C173.104,27.826,178.087,32.809,178.087,38.957z"/>
<path style="fill:#D0F7D6;" d="M456.348,262.678v204.8c0,24.588-19.934,44.522-44.522,44.522h-136.99
	c-24.588,0-44.522-19.933-44.522-44.522v-204.8c0-24.588,19.934-44.522,44.522-44.522h136.99
	C436.414,218.157,456.348,238.09,456.348,262.678z"/>
<path style="fill:#A3CCAA;" d="M332.026,218.157L230.314,436.279v-173.6c0-24.588,19.933-44.522,44.522-44.522H332.026z
	 M450.386,240.435L348.753,458.389h-74.82l112.022-240.233h-28.989L241.025,466.794h-10.711v0.685
	c0,24.588,19.934,44.522,44.522,44.522h136.99c24.588,0,44.522-19.933,44.522-44.522v-204.8
	C456.348,254.573,454.171,246.981,450.386,240.435z"/>
<path style="fill:#777777;" d="M456.348,451.724v15.754c0,24.588-19.934,44.522-44.522,44.522h-136.99
	c-24.588,0-44.522-19.933-44.522-44.522v-15.754H456.348z"/>
<path style="fill:#D0F7D6;" d="M366.748,481.862c0,4.61-3.738,8.348-8.348,8.348h-30.138c-4.61,0-8.348-3.738-8.348-8.348
	c0-4.61,3.738-8.348,8.348-8.348H358.4C363.01,473.514,366.748,477.252,366.748,481.862z"/>
</svg>